<svg xmlns="http://www.w3.org/2000/svg" viewBox="0 0 332 80.67"><title>Tiktok logo svg</title><path d="M164.72,452.68v-3.14a24.78,24.78,0,0,0-3.3-.23,24.44,24.44,0,0,0-14,44.47,24.44,24.44,0,0,1,17.29-41.1Z" transform="translate(-137 -420.92)" style="fill:#25f4ee"/><path d="M165.31,488.29a11.17,11.17,0,0,0,11.14-10.75l0-53.25h9.72a19,19,0,0,1-.3-3.37H172.61l0,53.25a11.17,11.17,0,0,1-11.14,10.75,11,11,0,0,1-5.18-1.29A11.09,11.09,0,0,0,165.31,488.29Z" transform="translate(-137 -420.92)" style="fill:#25f4ee"/><path d="M204.35,442.36v-3a18.26,18.26,0,0,1-10.06-3A18.45,18.45,0,0,0,204.35,442.36Z" transform="translate(-137 -420.92)" style="fill:#25f4ee"/><path d="M194.29,436.41a18.36,18.36,0,0,1-4.54-12.11H186.2A18.41,18.41,0,0,0,194.29,436.41Z" transform="translate(-137 -420.92)" style="fill:#fe2c55"/><path d="M161.44,462.57a11.16,11.16,0,0,0-5.16,21.05,11,11,0,0,1-2.12-6.51,11.09,11.09,0,0,1,14.45-10.64V452.9a24.78,24.78,0,0,0-3.3-.23l-.57,0v10.41A11.23,11.23,0,0,0,161.44,462.57Z" transform="translate(-137 -420.92)" style="fill:#fe2c55"/><path d="M204.35,442.36v10.32a31.58,31.58,0,0,1-18.47-5.94v27a24.42,24.42,0,0,1-38.44,20,24.42,24.42,0,0,0,42.32-16.65v-27a31.58,31.58,0,0,0,18.47,5.94V442.78A18.17,18.17,0,0,1,204.35,442.36Z" transform="translate(-137 -420.92)" style="fill:#fe2c55"/><path d="M185.88,473.75v-27a31.58,31.58,0,0,0,18.47,5.94V442.36a18.45,18.45,0,0,1-10.06-6,18.56,18.56,0,0,1-8.11-12.11h-9.72l0,53.25a11.14,11.14,0,0,1-20.19,6.1,11.14,11.14,0,0,1,8.46-20.53V452.7a24.43,24.43,0,0,0-17.29,41.08,24.42,24.42,0,0,0,38.44-20Z" transform="translate(-137 -420.92)"/><polygon points="84.35 21.48 125.83 21.48 122.02 33.36 111.27 33.36 111.27 77.28 97.85 77.28 97.85 33.36 84.37 33.38 84.35 21.48"/><polygon points="193.78 21.48 236.23 21.48 232.43 33.36 220.72 33.36 220.72 77.28 207.29 77.28 207.29 33.36 193.8 33.38 193.78 21.48"/><polygon points="128.37 39.23 141.66 39.23 141.66 77.28 128.44 77.28 128.37 39.23"/><polygon points="146.95 21.34 160.24 21.34 160.24 47.33 173.4 34.38 189.25 34.38 172.59 50.55 191.24 77.28 176.61 77.28 164.16 58.76 160.22 62.58 160.22 77.28 146.93 77.28 146.93 21.34 146.95 21.34"/><polygon points="287.71 21.34 301 21.34 301 47.33 314.16 34.38 330.01 34.38 313.35 50.55 332 77.28 317.39 77.28 304.94 58.76 301 62.58 301 77.28 287.71 77.28 287.71 21.34"/><ellipse cx="135.01" cy="28.19" rx="6.69" ry="6.69"/><path d="M371.52,475.42a22.77,22.77,0,0,1,21-22.7c-.59-.05-1.4-.07-2-.07a22.77,22.77,0,0,0,0,45.55c.59,0,1.4,0,2-.07A22.79,22.79,0,0,1,371.52,475.42Z" transform="translate(-137 -420.92)" style="fill:#25f4ee"/><path d="M397.67,452.65c-.61,0-1.42,0-2,.07a22.77,22.77,0,0,1,0,45.4c.59.05,1.4.07,2,.07a22.77,22.77,0,0,0,0-45.55Z" transform="translate(-137 -420.92)" style="fill:#fe2c55"/><path d="M394.08,452.65a22.77,22.77,0,1,0,22.76,22.77A22.76,22.76,0,0,0,394.08,452.65Zm0,33.85a11.07,11.07,0,1,1,11.06-11.07A11.06,11.06,0,0,1,394.08,486.5Z" transform="translate(-137 -420.92)"/></svg>